<?xml version="1.0" encoding="iso-8859-1"?>
<!-- Uploaded to: SVG Repo, www.svgrepo.com, Generator: SVG Repo Mixer Tools -->
<svg height="800px" width="800px" version="1.1" id="Layer_1" xmlns="http://www.w3.org/2000/svg" xmlns:xlink="http://www.w3.org/1999/xlink" 
	 viewBox="0 0 512 512" xml:space="preserve">
<circle style="fill:#D46366;" cx="125.529" cy="188.626" r="28.95"/>
<path style="fill:#4C1B27;" d="M125.526,232.081c-18.644,0-35.182-11.872-41.153-29.543c-7.669-22.693,4.556-47.394,27.249-55.063
	c4.504-1.523,9.185-2.294,13.909-2.294c18.645,0,35.183,11.873,41.153,29.546c7.669,22.69-4.555,47.391-27.249,55.06
	C134.93,231.31,130.25,232.081,125.526,232.081z M125.53,174.164c-1.564,0-3.122,0.259-4.63,0.768
	c-7.553,2.553-11.621,10.775-9.069,18.326c1.988,5.884,7.492,9.837,13.695,9.837c1.564,0,3.122-0.259,4.63-0.768
	c7.553-2.553,11.621-10.773,9.069-18.326C137.237,178.119,131.733,174.164,125.53,174.164z"/>
<circle style="fill:#D46366;" cx="248.304" cy="168.54" r="49.09"/>
<path style="fill:#4C1B27;" d="M248.302,232.137c-27.287,0-51.491-17.376-60.232-43.239c-11.223-33.214,6.669-69.365,39.883-80.589
	c6.597-2.229,13.446-3.359,20.358-3.359c27.285,0,51.49,17.377,60.231,43.242c11.221,33.212-6.669,69.364-39.882,80.588
	C262.064,231.008,255.213,232.137,248.302,232.137z M248.309,133.933c-3.75,0-7.479,0.617-11.08,1.835
	c-18.073,6.108-27.808,25.78-21.703,43.854c4.756,14.076,17.928,23.533,32.773,23.533c3.75,0,7.479-0.616,11.08-1.833
	c18.073-6.108,27.807-25.78,21.702-43.852C276.325,143.392,263.155,133.933,248.309,133.933z"/>
<circle style="fill:#D46366;" cx="168.743" cy="289.576" r="38.879"/>
<g>
	<path style="fill:#4C1B27;" d="M168.746,342.961c-22.906,0-43.223-14.586-50.559-36.296c-4.563-13.505-3.594-27.981,2.729-40.757
		c6.323-12.776,17.242-22.326,30.749-26.891c5.536-1.871,11.285-2.819,17.089-2.819c22.906,0,43.223,14.586,50.559,36.296
		c9.421,27.879-5.597,58.227-33.478,67.648C180.299,342.013,174.55,342.961,168.746,342.961z M168.754,265.182
		c-2.642,0-5.271,0.435-7.811,1.294c-6.172,2.085-11.16,6.449-14.05,12.288c-2.888,5.839-3.332,12.453-1.246,18.625
		c3.353,9.924,12.637,16.59,23.1,16.59c2.642,0,5.271-0.435,7.811-1.294c12.74-4.306,19.602-18.171,15.298-30.911
		C188.502,271.849,179.218,265.182,168.754,265.182z"/>
	<path style="fill:#4C1B27;" d="M224.17,480c-93.454,0.007-180.834-58.973-212.366-152.292
		C-27.73,210.71,35.292,83.36,152.291,43.824c52.911-17.881,110.218-15.414,161.354,6.94
		c50.785,22.202,91.329,62.103,114.162,112.358c3.31,7.287,0.088,15.877-7.2,19.189c-7.288,3.309-15.876,0.088-19.189-7.2
		C359.904,83.744,256.79,39.107,161.568,71.282C59.712,105.702,4.846,216.57,39.263,318.429
		c34.42,101.86,145.295,156.722,247.147,122.307c13.189-4.458,25.968-10.369,37.983-17.57c6.866-4.114,15.767-1.885,19.88,4.981
		c4.116,6.865,1.885,15.766-4.981,19.88c-13.788,8.263-28.458,15.05-43.603,20.168C272.008,476.197,247.885,479.997,224.17,480z"/>
</g>
<circle style="fill:#D46366;" cx="410.554" cy="313.98" r="86.951"/>
<path style="fill:#4C1B27;" d="M410.557,415.42c-55.936,0-101.443-45.507-101.443-101.443s45.507-101.443,101.443-101.443
	S512,258.041,512,313.977S466.493,415.42,410.557,415.42z M410.557,241.518c-39.954,0-72.459,32.505-72.459,72.459
	s32.505,72.459,72.459,72.459s72.459-32.505,72.459-72.459S450.513,241.518,410.557,241.518z"/>
</svg>